HIERARCHY
ROOT Hips
{
	OFFSET 0.000000 97.167313 0.000000
	CHANNELS 6 Xposition Yposition Zposition Xrotation Yrotation Zrotation
	JOINT Spine
	{
		OFFSET 0.000000 13.784798 0.064400
		CHANNELS 3 Xrotation Yrotation Zrotation
		JOINT Spine1
		{
			OFFSET 0.000000 12.037903 0.404700
			CHANNELS 3 Xrotation Yrotation Zrotation
			JOINT Spine2
			{
				OFFSET 0.000000 17.795601 0.420200
				CHANNELS 3 Xrotation Yrotation Zrotation
				JOINT Neck
				{
					OFFSET 0.000000 39.131302 11.954600
					CHANNELS 3 Xrotation Yrotation Zrotation
					JOINT Head
					{
						OFFSET 0.000000 14.456192 15.627699
						CHANNELS 3 Xrotation Yrotation Zrotation
						JOINT HeadTop_End
						{
							OFFSET 0.000000 15.703506 7.603401
							CHANNELS 3 Xrotation Yrotation Zrotation
							End Site
							{
								OFFSET 0.000000 17.447403 0.000000
							}
						}
					}
				}
				JOINT LeftShoulder
				{
					OFFSET 17.399500 24.608795 1.168800
					CHANNELS 3 Xrotation Yrotation Zrotation
					JOINT LeftArm
					{
						OFFSET 18.980635 5.765305 1.818600
						CHANNELS 3 Xrotation Yrotation Zrotation
						JOINT LeftForeArm
						{
							OFFSET 49.290169 0.000000 0.000000
							CHANNELS 3 Xrotation Yrotation Zrotation
							JOINT LeftHand
							{
								OFFSET 31.562012 0.000000 0.000000
								CHANNELS 3 Xrotation Yrotation Zrotation
								JOINT LeftHandThumb1
								{
									OFFSET 6.133995 -4.388519 7.076070
									CHANNELS 3 Xrotation Yrotation Zrotation
									JOINT LeftHandThumb2
									{
										OFFSET 6.037666 -3.485840 3.485847
										CHANNELS 3 Xrotation Yrotation Zrotation
										JOINT LeftHandThumb3
										{
											OFFSET 6.496506 -3.750763 3.750761
											CHANNELS 3 Xrotation Yrotation Zrotation
											JOINT LeftHandThumb4
											{
												OFFSET 5.616882 -3.242905 3.242910
												CHANNELS 3 Xrotation Yrotation Zrotation
												End Site
												{
													OFFSET -1.254608 7.132141 0.375429
												}
											}
										}
									}
								}
								JOINT LeftHandPinky1
								{
									OFFSET 18.920792 -0.453171 -11.426712
									CHANNELS 3 Xrotation Yrotation Zrotation
									JOINT LeftHandPinky2
									{
										OFFSET 4.919586 0.000000 0.000000
										CHANNELS 3 Xrotation Yrotation Zrotation
										JOINT LeftHandPinky3
										{
											OFFSET 5.233047 0.000000 0.000000
											CHANNELS 3 Xrotation Yrotation Zrotation
											JOINT LeftHandPinky4
											{
												OFFSET 5.571716 0.000000 0.000000
												CHANNELS 3 Xrotation Yrotation Zrotation
												End Site
												{
													OFFSET -3.459808 4.342407 -0.466164
												}
											}
										}
									}
								}
								JOINT LeftHandRing1
								{
									OFFSET 22.726120 -0.094986 -6.500475
									CHANNELS 3 Xrotation Yrotation Zrotation
									JOINT LeftHandRing2
									{
										OFFSET 6.408615 0.000000 0.000000
										CHANNELS 3 Xrotation Yrotation Zrotation
										JOINT LeftHandRing3
										{
											OFFSET 6.150223 0.000000 0.000000
											CHANNELS 3 Xrotation Yrotation Zrotation
											JOINT LeftHandRing4
											{
												OFFSET 6.145386 0.000000 0.000000
												CHANNELS 3 Xrotation Yrotation Zrotation
												End Site
												{
													OFFSET -3.671402 4.923981 -0.202372
												}
											}
										}
									}
								}
								JOINT LeftHandMiddle1
								{
									OFFSET 23.373947 0.000000 0.000001
									CHANNELS 3 Xrotation Yrotation Zrotation
									JOINT LeftHandMiddle2
									{
										OFFSET 6.996567 0.000000 0.000000
										CHANNELS 3 Xrotation Yrotation Zrotation
										JOINT LeftHandMiddle3
										{
											OFFSET 7.015945 0.000000 0.000000
											CHANNELS 3 Xrotation Yrotation Zrotation
											JOINT LeftHandMiddle4
											{
												OFFSET 7.721573 0.000000 0.000000
												CHANNELS 3 Xrotation Yrotation Zrotation
												End Site
												{
													OFFSET -4.651108 6.158463 0.251582
												}
											}
										}
									}
								}
								JOINT LeftHandIndex1
								{
									OFFSET 21.310577 -0.490082 6.209344
									CHANNELS 3 Xrotation Yrotation Zrotation
									JOINT LeftHandIndex2
									{
										OFFSET 7.536453 0.000000 0.000000
										CHANNELS 3 Xrotation Yrotation Zrotation
										JOINT LeftHandIndex3
										{
											OFFSET 7.512344 0.000000 0.000000
											CHANNELS 3 Xrotation Yrotation Zrotation
											JOINT LeftHandIndex4
											{
												OFFSET 10.212402 0.000000 0.000001
												CHANNELS 3 Xrotation Yrotation Zrotation
												End Site
												{
													OFFSET -5.180801 8.690506 1.388433
												}
											}
										}
									}
								}
							}
						}
					}
				}
				JOINT RightShoulder
				{
					OFFSET -17.399500 24.608795 1.168800
					CHANNELS 3 Xrotation Yrotation Zrotation
					JOINT RightArm
					{
						OFFSET -18.980635 5.765305 1.818600
						CHANNELS 3 Xrotation Yrotation Zrotation
						JOINT RightForeArm
						{
							OFFSET -49.290169 0.000000 0.000000
							CHANNELS 3 Xrotation Yrotation Zrotation
							JOINT RightHand
							{
								OFFSET -31.562012 0.000000 0.000000
								CHANNELS 3 Xrotation Yrotation Zrotation
								JOINT RightHandThumb1
								{
									OFFSET -6.133995 -4.388519 7.076070
									CHANNELS 3 Xrotation Yrotation Zrotation
									JOINT RightHandThumb2
									{
										OFFSET -6.037666 -3.485840 3.485847
										CHANNELS 3 Xrotation Yrotation Zrotation
										JOINT RightHandThumb3
										{
											OFFSET -6.496506 -3.750763 3.750761
											CHANNELS 3 Xrotation Yrotation Zrotation
											JOINT RightHandThumb4
											{
												OFFSET -5.616882 -3.242905 3.242910
												CHANNELS 3 Xrotation Yrotation Zrotation
												End Site
												{
													OFFSET 1.254608 7.132141 0.375429
												}
											}
										}
									}
								}
								JOINT RightHandIndex1
								{
									OFFSET -21.310577 -0.490082 6.209344
									CHANNELS 3 Xrotation Yrotation Zrotation
									JOINT RightHandIndex2
									{
										OFFSET -7.536453 0.000000 0.000000
										CHANNELS 3 Xrotation Yrotation Zrotation
										JOINT RightHandIndex3
										{
											OFFSET -7.512344 0.000000 0.000000
											CHANNELS 3 Xrotation Yrotation Zrotation
											JOINT RightHandIndex4
											{
												OFFSET -10.212402 0.000000 0.000001
												CHANNELS 3 Xrotation Yrotation Zrotation
												End Site
												{
													OFFSET 5.180801 8.690506 1.388433
												}
											}
										}
									}
								}
								JOINT RightHandMiddle1
								{
									OFFSET -23.373947 0.000000 0.000001
									CHANNELS 3 Xrotation Yrotation Zrotation
									JOINT RightHandMiddle2
									{
										OFFSET -6.996567 0.000000 0.000000
										CHANNELS 3 Xrotation Yrotation Zrotation
										JOINT RightHandMiddle3
										{
											OFFSET -7.015945 0.000000 0.000000
											CHANNELS 3 Xrotation Yrotation Zrotation
											JOINT RightHandMiddle4
											{
												OFFSET -7.721573 0.000000 0.000000
												CHANNELS 3 Xrotation Yrotation Zrotation
												End Site
												{
													OFFSET 4.651108 6.158463 0.251582
												}
											}
										}
									}
								}
								JOINT RightHandRing1
								{
									OFFSET -22.726120 -0.094986 -6.500475
									CHANNELS 3 Xrotation Yrotation Zrotation
									JOINT RightHandRing2
									{
										OFFSET -6.408615 0.000000 0.000000
										CHANNELS 3 Xrotation Yrotation Zrotation
										JOINT RightHandRing3
										{
											OFFSET -6.150223 0.000000 0.000000
											CHANNELS 3 Xrotation Yrotation Zrotation
											JOINT RightHandRing4
											{
												OFFSET -6.145386 0.000000 0.000000
												CHANNELS 3 Xrotation Yrotation Zrotation
												End Site
												{
													OFFSET 3.671402 4.923981 -0.202372
												}
											}
										}
									}
								}
								JOINT RightHandPinky1
								{
									OFFSET -18.920792 -0.453171 -11.426712
									CHANNELS 3 Xrotation Yrotation Zrotation
									JOINT RightHandPinky2
									{
										OFFSET -4.919586 0.000000 0.000000
										CHANNELS 3 Xrotation Yrotation Zrotation
										JOINT RightHandPinky3
										{
											OFFSET -5.233047 0.000000 0.000000
											CHANNELS 3 Xrotation Yrotation Zrotation
											JOINT RightHandPinky4
											{
												OFFSET -5.571716 0.000000 0.000000
												CHANNELS 3 Xrotation Yrotation Zrotation
												End Site
												{
													OFFSET 3.459808 4.342407 -0.466164
												}
											}
										}
									}
								}
							}
						}
					}
				}
			}
		}
	}
	JOINT LeftUpLeg
	{
		OFFSET 19.899099 -7.885101 -3.429500
		CHANNELS 3 Xrotation Yrotation Zrotation
		JOINT LeftLeg
		{
			OFFSET 1.745560 -36.997807 10.304700
			CHANNELS 3 Xrotation Yrotation Zrotation
			JOINT LeftFoot
			{
				OFFSET -1.745558 -29.803308 -13.615400
				CHANNELS 3 Xrotation Yrotation Zrotation
				JOINT LeftToeBase
				{
					OFFSET 1.181900 -18.539904 15.226099
					CHANNELS 3 Xrotation Yrotation Zrotation
					JOINT LeftToe_End
					{
						OFFSET -0.863701 1.402801 16.534700
						CHANNELS 3 Xrotation Yrotation Zrotation
						End Site
						{
							OFFSET 0.000000 16.616566 0.000000
						}
					}
				}
			}
		}
	}
	JOINT RightUpLeg
	{
		OFFSET -19.899099 -7.885101 -3.429500
		CHANNELS 3 Xrotation Yrotation Zrotation
		JOINT RightLeg
		{
			OFFSET -1.745560 -36.997807 10.304700
			CHANNELS 3 Xrotation Yrotation Zrotation
			JOINT RightFoot
			{
				OFFSET 1.745558 -29.803308 -13.615400
				CHANNELS 3 Xrotation Yrotation Zrotation
				JOINT RightToeBase
				{
					OFFSET -1.181900 -18.539904 15.226099
					CHANNELS 3 Xrotation Yrotation Zrotation
					JOINT RightToe_End
					{
						OFFSET 0.863701 1.402801 16.534700
						CHANNELS 3 Xrotation Yrotation Zrotation
						End Site
						{
							OFFSET 0.000000 16.616566 0.000000
						}
					}
				}
			}
		}
	}
}
MOTION
Frames: 4
Frame Time: 0.033333
-1.463420 78.884613 0.375261 9.549100 -61.629255 10.130310 15.066979 -0.306771 -4.263156 5.872787 0.571227 -2.801498 5.868663 0.648825 -2.855450 -3.633934 1.441495 3.748148 -20.005402 54.833889 2.407661 0.000000 0.000000 -0.000000 1.828133 -3.192698 -12.271599 -39.387184 26.350399 -34.911180 0.429505 -46.808796 0.421325 -10.315152 -0.130521 0.363108 40.109873 -15.297250 -0.360503 5.639851 28.097884 11.338800 1.088512 40.896243 22.734064 -0.000002 0.000002 -0.000003 -17.946969 14.755002 -51.485963 8.868469 8.667027 -84.812030 4.540469 8.852523 -59.152963 0.000001 0.000002 -0.000002 -9.042525 10.045630 -60.766212 8.524098 9.508842 -66.892953 6.576589 9.896764 -70.385209 0.000001 -0.000001 0.000002 -2.345550 4.688848 -62.655258 8.754198 9.897109 -87.051335 1.995374 4.929218 -37.483416 -0.000002 -0.000001 0.000009 6.882194 2.840007 -61.140411 8.247986 7.640057 -89.897878 2.146106 8.173447 -41.827734 -0.000003 -0.000000 -0.000001 0.639273 7.258919 8.704420 7.936542 -9.680338 53.429937 -22.866623 36.192626 17.964374 -27.375449 10.434345 -17.812852 -2.346171 -6.100496 10.731407 2.364070 -23.806283 -8.771057 -5.012445 13.984816 5.861521 -0.000000 0.000000 0.000004 -0.054740 0.532100 0.738712 0.019753 -0.087326 5.078538 -0.004008 -2.004345 -2.833993 -0.000001 0.000000 0.000001 0.348229 -5.918520 2.583779 1.432624 -4.204191 24.052072 0.133935 1.746474 -5.753013 -0.000000 0.000001 -0.000001 1.205793 -11.756092 4.154736 1.794885 -3.771857 26.865431 1.319766 -3.995347 19.486885 0.000001 -0.000000 -0.000003 2.126189 -19.166820 11.319896 3.354773 -2.122235 18.828612 6.367016 -5.015711 28.949152 -0.000002 -0.000002 -0.000001 -37.387390 8.995771 29.821866 35.086443 -10.555364 -0.716642 -3.627368 0.155390 -20.668069 -1.836456 -0.000574 -0.000030 -0.000000 -0.000000 0.000000 -26.949918 -18.877608 -40.111519 34.584011 9.750481 -0.975228 -14.070969 -3.888936 27.372572 -0.001708 -0.000396 -0.000042 0.000000 -0.000000 0.000000 
-1.560684 70.433609 1.738549 16.335246 -61.224880 14.917215 14.652342 2.165281 -4.029833 6.312468 4.876539 -3.620415 6.308514 4.913457 -3.650300 -5.489787 4.031728 0.681737 -14.300883 40.633755 -2.663119 0.000001 0.000000 -0.000001 1.464186 -3.557439 -17.870613 -31.730723 29.507708 -31.357863 12.539144 -60.165661 10.370169 -9.895961 0.633050 0.591626 40.109883 -15.297250 -0.360501 5.639852 28.097889 11.338800 1.088512 40.896253 22.734061 0.000000 0.000003 -0.000002 -17.946964 14.754993 -51.485963 8.868467 8.667028 -84.812023 4.540465 8.852525 -59.152969 0.000001 -0.000001 0.000001 -9.042519 10.045620 -60.766205 8.524097 9.508844 -66.892953 6.576592 9.896767 -70.385202 -0.000002 0.000004 0.000004 -2.345552 4.688842 -62.655251 8.754201 9.897110 -87.051335 1.995373 4.929221 -37.483409 0.000003 0.000001 0.000004 6.882194 2.840005 -61.140404 8.247987 7.640056 -89.897884 2.146105 8.173446 -41.827737 -0.000001 0.000001 0.000001 0.703154 10.712003 4.658956 0.455215 -9.614317 43.105679 -21.908146 33.251202 16.441508 -20.291759 11.092921 -15.261713 -4.763128 -7.565087 10.013839 2.554447 -24.793643 -9.082748 -3.291238 9.219230 2.930621 0.000002 -0.000000 -0.000002 0.010527 -0.280661 5.875375 0.097150 -0.696534 9.303577 -0.009079 -2.712979 1.877491 0.000001 0.000002 0.000001 0.559324 -6.559434 6.756175 1.631331 -4.619492 26.912583 0.092792 1.093091 -1.775420 0.000002 -0.000000 -0.000004 1.720611 -11.710350 8.112183 1.920655 -3.987827 28.350701 1.449369 -4.368341 21.770451 0.000003 -0.000002 -0.000003 2.567476 -19.615105 15.691429 3.470722 -2.487224 21.101962 6.311557 -5.065865 29.153757 -0.000001 -0.000001 -0.000001 -51.271498 4.130594 35.766600 55.812358 -13.214245 -1.781505 -10.249444 -0.512599 -18.929470 -2.798983 0.656428 0.095248 -0.000000 -0.000000 0.000000 -34.916251 -13.553075 -45.297849 48.905657 13.876439 0.521410 -21.698727 -5.589468 28.245814 -0.001935 -0.009503 -0.007459 0.000000 0.000000 -0.000000 
-1.728128 58.707901 4.281886 25.990550 -59.963330 19.503451 13.254867 4.311654 -3.676806 7.140663 8.414172 -4.481139 7.131856 8.419450 -4.489802 -6.767077 9.197812 -2.297500 -13.745270 25.574872 -3.442688 0.000002 0.000000 -0.000000 1.031346 -3.858167 -23.802045 -22.532465 34.707377 -30.145405 40.701589 -70.671619 37.861712 -9.039447 1.003218 1.345739 40.109880 -15.297249 -0.360505 5.639851 28.097889 11.338800 1.088513 40.896239 22.734064 -0.000003 0.000003 -0.000004 -17.946969 14.754995 -51.485966 8.868470 8.667028 -84.812030 4.540466 8.852523 -59.152969 0.000002 -0.000000 -0.000004 -9.042527 10.045630 -60.766205 8.524095 9.508842 -66.892953 6.576593 9.896766 -70.385209 -0.000004 0.000002 0.000002 -2.345555 4.688843 -62.655251 8.754199 9.897109 -87.051335 1.995375 4.929222 -37.483416 0.000000 -0.000000 0.000004 6.882192 2.840005 -61.140411 8.247988 7.640055 -89.897878 2.146103 8.173447 -41.827734 0.000001 0.000001 0.000002 1.254149 14.294532 0.610782 -8.984338 -5.828396 34.130370 -20.678393 29.751392 14.197396 -13.823636 12.784176 -13.099002 -7.193580 -9.040601 9.213327 2.764711 -25.918811 -9.435676 -1.646064 3.706863 -0.201115 0.000001 0.000001 -0.000000 0.174875 -1.206240 11.720845 0.239665 -1.380560 14.113343 0.056097 -3.516632 7.242675 -0.000002 -0.000001 -0.000001 0.854948 -7.268196 11.513487 1.884322 -5.078362 30.171558 0.101279 0.348118 2.749680 0.000001 0.000001 -0.000004 2.300740 -11.616262 12.613573 2.071011 -4.229213 30.041860 1.616531 -4.786618 24.371196 -0.000000 0.000001 -0.000003 3.095418 -20.055990 20.682907 3.625732 -2.897096 23.690342 6.248750 -5.123356 29.386288 -0.000000 -0.000004 0.000007 -70.463920 -8.610586 47.117158 81.914206 -15.691427 -4.102303 -9.892066 -4.979914 -17.561788 -8.077857 -0.032335 0.290552 0.000000 0.000001 0.000000 -41.657962 -8.289176 -50.747715 61.981508 19.768442 2.656900 -29.231181 -7.522307 30.850892 -0.002864 -0.036344 -0.029333 0.000000 0.000000 0.000000 
-2.687496 54.635574 7.042805 33.675674 -53.924938 21.048691 11.192581 4.728204 -3.521731 7.991952 8.968281 -4.880806 7.982066 8.974254 -4.882151 -7.264175 15.839012 -4.983843 -15.607225 12.171059 -2.758821 0.000001 0.000000 -0.000000 0.659961 -5.160219 -26.941514 -20.990496 39.364279 -24.327240 72.929816 -76.485408 71.034165 -8.868496 1.894467 -6.253457 40.109880 -15.297247 -0.360505 5.639854 28.097894 11.338803 1.088516 40.896246 22.734064 0.000001 0.000001 -0.000001 -17.946971 14.754995 -51.485966 8.868470 8.667025 -84.812023 4.540470 8.852520 -59.152969 -0.000001 0.000001 -0.000000 -9.042527 10.045630 -60.766212 8.524096 9.508843 -66.892953 6.576592 9.896765 -70.385209 -0.000000 -0.000001 0.000003 -2.345554 4.688848 -62.655251 8.754203 9.897109 -87.051335 1.995374 4.929221 -37.483412 0.000003 -0.000000 0.000004 6.882200 2.840005 -61.140411 8.247984 7.640056 -89.897878 2.146104 8.173447 -41.827740 -0.000000 0.000001 0.000001 2.163406 17.584665 -3.206474 -18.944681 0.009636 28.845501 -22.088401 25.969853 13.438084 -7.799375 16.046339 -11.846532 -9.689658 -10.363143 8.362616 2.955935 -26.977225 -9.765891 -0.374143 -1.539898 -2.997568 -0.000001 0.000003 0.000001 0.417435 -2.067814 17.215065 0.425457 -2.010190 18.634715 0.185798 -4.262962 12.288109 -0.000001 -0.000001 0.000001 1.185173 -7.909964 15.992746 2.147268 -5.494743 33.237230 0.162781 -0.349028 7.000462 -0.000000 -0.000000 -0.000001 2.837072 -11.487482 16.839435 2.219046 -4.451732 31.631678 1.792486 -5.172851 26.816947 -0.000000 -0.000000 -0.000003 3.618016 -20.398881 25.387649 3.793485 -3.275669 26.123462 6.188206 -5.174604 29.604984 0.000000 -0.000003 0.000004 -84.874041 -16.525675 47.766255 94.271862 -16.329876 -4.633901 -10.050703 -4.356406 -12.571127 -4.885259 0.703943 -1.041723 -0.000000 -0.000002 0.000000 -41.116018 -11.387172 -51.303146 63.313511 17.418157 3.415216 -29.416252 -8.971675 35.530449 -3.533520 1.734071 -0.490191 0.000000 0.000000 -0.000000 
